<svg xmlns="http://www.w3.org/2000/svg" xmlns:xlink="http://www.w3.org/1999/xlink" width="1080" zoomAndPan="magnify" viewBox="0 0 810 809.999993" height="1080" preserveAspectRatio="xMidYMid meet" version="1.0"><path fill="#a8d945" d="M 457.21875 353.425781 C 447.496094 368.257812 439.988281 384.625 426.851562 397.070312 C 392.90625 429.464844 355.203125 455.722656 308.460938 465.609375 C 288.671875 469.871094 268.03125 467.824219 247.898438 466.632812 C 218.046875 464.757812 188.53125 459.300781 159.703125 450.777344 C 144.007812 446.171875 129.167969 440.035156 115.179688 432.023438 C 99.996094 423.5 96.242188 412.074219 99.996094 395.367188 C 109.546875 353.085938 142.132812 330.070312 174.203125 308.078125 C 214.632812 280.457031 260.523438 267.839844 309.824219 266.648438 C 346.671875 265.625 383.351562 266.476562 420.199219 270.738281 C 420.371094 270.226562 421.050781 269.035156 420.882812 268.011719 C 412.523438 218.226562 434.019531 177.308594 459.09375 137.246094 C 484.171875 96.667969 517.78125 65.808594 559.574219 43.644531 C 572.539062 36.824219 585.164062 29.324219 597.617188 21.480469 C 618.769531 8.183594 642.3125 3.410156 666.539062 1.363281 C 682.914062 0 695.539062 8.355469 700.316406 23.867188 C 714.132812 69.046875 708.84375 113.71875 693.832031 157.53125 C 675.578125 210.726562 639.925781 251.644531 597.105469 286.765625 C 582.777344 298.527344 568.445312 310.464844 551.726562 318.816406 C 544.5625 322.398438 549.167969 325.636719 551.386719 328.875 C 576.121094 364.167969 592.5 402.867188 598.46875 445.660156 C 601.539062 467.3125 602.566406 488.964844 602.222656 510.789062 C 601.882812 537.386719 602.566406 563.980469 602.054688 590.410156 C 601.027344 652.296875 585.335938 710.945312 561.453125 767.546875 C 549.679688 795.167969 527.84375 810 496.796875 809.148438 C 481.785156 808.804688 473.765625 801.304688 466.941406 788.007812 C 455.683594 766.355469 461.3125 748.625 471.378906 727.652344 C 492.359375 683.667969 519.316406 641.386719 527.84375 592.625 C 536.03125 545.910156 532.960938 499.027344 515.902344 453.675781 C 510.101562 438.160156 504.8125 422.476562 499.183594 406.960938 C 492.191406 388.207031 474.621094 365.53125 457.21875 353.425781 Z M 457.21875 353.425781 " fill-opacity="1" fill-rule="nonzero"/></svg>